<?xml version="1.0" encoding="UTF-8"?><svg id="Calque_2" xmlns="http://www.w3.org/2000/svg" xmlns:xlink="http://www.w3.org/1999/xlink" viewBox="0 0 202.64 271.45"><defs><linearGradient id="Pêche" x1="134.3" y1="132.05" x2="201.87" y2="132.05" gradientUnits="userSpaceOnUse"><stop offset=".02" stop-color="#bd6357"/><stop offset=".07" stop-color="#c75448"/><stop offset=".11" stop-color="#d1473c"/><stop offset=".13" stop-color="#d85348"/><stop offset=".17" stop-color="#e4665a"/><stop offset=".2" stop-color="#eb7165"/><stop offset=".24" stop-color="#ee7569"/><stop offset=".43" stop-color="#ed8561"/><stop offset=".61" stop-color="#ef7e6b"/><stop offset=".86" stop-color="#ef9668"/><stop offset=".89" stop-color="#f09a68"/><stop offset=".96" stop-color="#f5b180"/><stop offset="1" stop-color="#fac493"/></linearGradient><linearGradient id="Pomme_de_terre" x1="108.09" y1="188.09" x2="138.61" y2="188.09" gradientUnits="userSpaceOnUse"><stop offset=".02" stop-color="#92653a"/><stop offset=".1" stop-color="#79552f"/><stop offset=".12" stop-color="#74522d"/><stop offset=".23" stop-color="#8a6438"/><stop offset=".41" stop-color="#a17c4a"/><stop offset=".51" stop-color="#af8a56"/><stop offset=".7" stop-color="#dcb992"/><stop offset=".79" stop-color="#c9a679"/><stop offset=".9" stop-color="#af8a56"/><stop offset="1" stop-color="#e8d4b8"/></linearGradient><linearGradient id="Pomme_de_terre-2" x1="108.79" y1="180.83" x2="137.24" y2="180.83" xlink:href="#Pomme_de_terre"/><linearGradient id="Pomme_de_terre-3" x1="112.15" y1="188.59" x2="133.54" y2="188.59" xlink:href="#Pomme_de_terre"/></defs><g id="Calque_1-2"><path d="M138,.82c.08-.05,.15-.1,.23-.16-.1-.22-.18-.44-.28-.66-1.48,1.18-2.93,2.4-4.34,3.66-.02,.02-.05,.05-.07,.07,1.5-.96,2.99-1.92,4.46-2.91Z" fill="#1d1d1b"/><g><g><path d="M200.44,106.4c1.44,2.07,2.28,4.58,1.82,7.09-.51,2.76-2.45,4.99-4.51,6.83-4.62,4.14-10.15,7.13-15.53,10.2-5.66,3.23-11.13,6.76-16.34,10.67-4.86,3.64-9.64,7.52-13.74,11.99-3.88,4.23-7.1,9.14-8.47,14.73,0,.06-.04,.09-.07,.12,.04,.07,.09,.14,.12,.22,.02,.04,.03,.08,.03,.11-.01,.2-.33,.32-.44,.1-.86-1.73-2.08-3.29-3.44-4.67-.06-.06,.03-.17,.11-.11,1.38,1.01,2.45,2.32,3.29,3.77,.31-1.21,.7-2.41,1.18-3.57,2.12-5.14,5.7-9.56,9.67-13.45,4.37-4.28,9.25-8.11,14.24-11.67,5.16-3.68,10.56-6.93,16.07-10.06,2.66-1.52,5.31-3.06,7.84-4.77,2.47-1.67,4.95-3.52,6.93-5.75,1.88-2.1,3.08-4.73,2.54-7.56-.5-2.61-2.17-4.87-4.14-6.63-1.03-.92-2.18-1.72-3.39-2.39-1.39-.76-2.94-1.37-4.55-1.33-3.01,.06-5.07,2.59-6.73,4.75-3.69,4.81-6.61,10.12-9.63,15.34-3.03,5.24-6.19,10.41-10.25,14.95-2.15,2.4-4.48,4.64-6.85,6.82-2.25,2.08-4.53,4.12-6.88,6.09-4.61,3.85-9.55,7.4-15.04,9.94,1.16,.71,2.43,1.24,3.79,1.48,1.6,.79,3.11,1.76,4.49,2.88,.15,.34,.29,.68,.43,1.03,.04,.1,.08,.19,.11,.26-2.63-2.42-5.82-4.24-9.3-5.24-.07-.02-.12-.06-.15-.11-.07-.11-.04-.27,.05-.37,.06-.07,.12-.13,.17-.19,.03,.02,.06,.03,.08,.05,.02-.04,.04-.08,.1-.1,1.37-.64,2.72-1.35,4.03-2.1,5.38-3.12,10.17-7.1,14.76-11.24,4.79-4.32,9.56-8.71,13.38-13.92,3.62-4.94,6.52-10.35,9.6-15.62,1.54-2.63,3.13-5.25,4.88-7.76,.86-1.23,1.75-2.44,2.7-3.61,.84-1.02,1.76-2,2.86-2.73,1.15-.76,2.47-1.17,3.86-1.1,1.52,.08,2.96,.65,4.28,1.37,2.36,1.28,4.49,3.08,6.02,5.28Z" fill="#1d1d1b"/><path d="M201.75,110.6c.54,2.84-.66,5.46-2.54,7.56-1.98,2.23-4.46,4.08-6.93,5.75-2.53,1.71-5.18,3.25-7.84,4.77-5.51,3.14-10.91,6.38-16.07,10.06-4.99,3.56-9.87,7.39-14.24,11.67-3.97,3.88-7.55,8.31-9.67,13.45l-1.35-.08c-.03-.08-.07-.16-.11-.26-.14-.35-.28-.69-.43-1.03-1.38-1.12-2.89-2.09-4.49-2.88-1.36-.24-2.63-.77-3.79-1.48,5.49-2.55,10.43-6.09,15.04-9.94,2.35-1.97,4.63-4.01,6.88-6.09,2.37-2.18,4.7-4.42,6.85-6.82,4.06-4.54,7.22-9.71,10.25-14.95,3.01-5.22,5.94-10.54,9.63-15.34,1.66-2.15,3.72-4.69,6.73-4.75,1.61-.04,3.16,.57,4.55,1.33,1.22,.67,2.36,1.47,3.39,2.39,1.96,1.76,3.64,4.03,4.14,6.63Z" fill="url(#Pêche)"/><path d="M144.3,167.12c.12,.33,.23,.65,.35,.97-.19,.6-.32,1.23-.52,1.84-.19,.58-.44,1.16-.89,1.59-.23,.22-.51,.38-.81,.48-.55,.2-.99,.26-1.21,.87-.15,.42-.21,.87-.43,1.26-.21,.37-.52,.68-.89,.91-.23,.15-.49,.26-.76,.33,.2,1.19,.09,2.48-.07,3.64-.2,1.43-.59,2.84-1.16,4.17-1.01,2.35-2.54,4.49-4.49,6.16-2.26,1.94-5.04,3.01-7.84,3.95-1.55,.51-3.1,1-4.62,1.59-1.48,.58-2.94,1.22-4.36,1.93-2.88,1.42-5.62,3.1-8.21,4.99-.16,.12-.37-.1-.21-.22,2.77-2.08,5.74-3.91,8.85-5.44,2.77-1.36,5.65-2.4,8.57-3.41,2.8-.97,5.55-2.1,7.76-4.1,1.92-1.74,3.39-3.94,4.28-6.34,.45-1.21,.76-2.47,.9-3.75,.12-1.03,.06-2.05,.04-3.07-.18,.01-.36,.02-.53-.03-.26-.06-.35-.27-.5-.47-.1-.13-.2-.26-.31-.39-2.6-3.4-5.75-6.37-9.31-8.78-.08-.06-.13-.13-.15-.2-.03-.15,.07-.33,.25-.4,1.55-.54,2.1-2.6,1.2-3.89-.14-.2,.08-.51,.31-.47,1.01,.17,1.36-1.25,1.83-1.85,.51-.64,1.36-1.21,2.16-.68,.06,.03,.09,.07,.11,.12,.13,.26-.18,.63-.48,.42-.84-.57-1.54,1.01-1.85,1.52-.29,.47-.71,.95-1.24,1.09,.67,1.45,.03,3.28-1.33,4.11,3.65,2.54,6.86,5.66,9.49,9.22,.11,0,.22,0,.33-.01v-.03c0-.13,.11-.2,.22-.19,.08,0,.17,.06,.21,.16,.32-.09,.62-.24,.87-.48,.49-.46,.52-1.09,.77-1.68,.18-.46,.49-.8,.97-.98,.43-.16,.86-.23,1.19-.55,.52-.5,.71-1.29,.89-1.96,.05-.21,.12-.45,.18-.69,.11-.42,.25-.87,.45-1.25Z" fill="#1d1d1b"/><path d="M143.11,163.78l1.35,.08c-.48,1.16-.87,2.36-1.18,3.57-.85-1.45-1.92-2.76-3.29-3.77-.08-.06-.17,.05-.11,.11,1.36,1.38,2.58,2.94,3.44,4.67,.11,.22,.43,.11,.44-.1l.09,.03c-.06,.24-.12,.47-.18,.69-.18,.67-.37,1.46-.89,1.96-.34,.32-.77,.39-1.19,.55-.48,.18-.79,.52-.97,.98-.24,.59-.28,1.22-.77,1.68-.25,.24-.55,.39-.87,.48-.03-.1-.12-.15-.21-.16-.11,0-.22,.06-.22,.19v.03c-.11,0-.22,.02-.33,.01-2.62-3.56-5.84-6.68-9.49-9.22,1.36-.83,2-2.66,1.33-4.11,.53-.15,.95-.62,1.24-1.09,.32-.51,1.01-2.09,1.85-1.52,.29,.2,.6-.16,.48-.42h.01s.08,.08,.15,.11c3.48,1,6.67,2.82,9.3,5.24Zm-2.93,8.25c.15,.18,.42-.06,.27-.24l-.92-1.09c-.15-.18-.31-.35-.47-.52-.16-.18-.32-.36-.5-.51-.08-.06-.18,.05-.14,.13,.11,.2,.27,.38,.4,.56,.15,.2,.3,.38,.45,.57,.3,.37,.6,.74,.91,1.11Zm-1.48-6.1c.1-.41,0-.81-.33-1.09-.15-.13-.32-.23-.53-.24-.19-.02-.37,.05-.53,.16-.04,.03-.06,.09-.06,.15-.43-.3-1.02-.25-1.44,.07-.5,.39-.55,1.1-.22,1.61,.35,.57,1,.82,1.66,.68,.67-.15,1.28-.68,1.45-1.34Zm-1.41-3.35c.11,.06,.23-.07,.14-.17-.23-.28-.54-.5-.81-.74-.27-.24-.55-.47-.83-.7-.57-.48-1.14-.94-1.71-1.41-.18-.16-.4,.16-.21,.31,.57,.46,1.13,.92,1.69,1.38l.84,.67c.29,.22,.57,.48,.89,.66Zm-3.38,2.75c.06,.05,.17-.04,.12-.11-.22-.33-.51-.64-.77-.95-.3-.32-.58-.65-.88-.97-.59-.62-1.18-1.24-1.77-1.86-.2-.21-.52,.09-.33,.29,.59,.62,1.19,1.23,1.79,1.85,.3,.31,.6,.6,.9,.9,.3,.29,.61,.6,.94,.84Z" fill="#899eaa"/><path d="M140.45,171.8c.15,.18-.12,.42-.27,.24-.31-.36-.61-.74-.91-1.11-.15-.18-.31-.37-.45-.57-.13-.18-.29-.36-.4-.56-.04-.08,.07-.18,.14-.13,.18,.15,.34,.34,.5,.51,.16,.17,.32,.34,.47,.52l.92,1.09Z" fill="#1d1d1b"/><path d="M138.58,175.48c.03,1.03,.08,2.04-.04,3.07-.14,1.28-.45,2.54-.9,3.75-.9,2.4-2.36,4.6-4.28,6.34-2.21,1.99-4.95,3.13-7.76,4.1-2.92,1-5.8,2.05-8.57,3.41-3.12,1.53-6.08,3.36-8.85,5.44l-.09-.07c.67-.78,1.31-1.59,1.93-2.41,.22-.3,.44-.6,.65-.9,.13-.1,.26-.21,.39-.32,2.23-1.75,4.74-3.11,7.27-4.37,2.72-1.37,5.49-2.66,8.06-4.3,2.41-1.54,4.55-3.43,6.32-5.68,1.96-2.49,3.36-5.35,4.19-8.39,.03-.1,0-.19-.07-.24l.42-.32c.11,.13,.21,.26,.31,.39,.15,.2,.24,.42,.5,.47,.17,.04,.35,.04,.53,.03Z" fill="url(#Pomme_de_terre)"/><path d="M138.38,164.85c.33,.28,.43,.68,.33,1.09-.16,.65-.78,1.19-1.45,1.34-.65,.14-1.3-.11-1.66-.68-.32-.5-.28-1.22,.22-1.61,.42-.32,1.01-.37,1.44-.07,0-.06,.01-.12,.06-.15,.15-.11,.34-.18,.53-.16,.21,.01,.38,.11,.53,.24Zm-1.09,1.91c.42-.13,.84-.52,.84-.98,0-.1-.02-.24-.05-.31-.04-.08-.08-.14-.14-.18-.07-.06-.17-.1-.23-.13-.08-.04-.15-.05-.25-.04,0,0,0,0-.01,0,.02,.08,0,.17-.07,.23-.1,.09-.25,.07-.34-.02-.28-.25-.77-.14-.99,.13-.26,.29-.17,.74,.08,1.02,.29,.34,.75,.42,1.17,.28Z" fill="#1d1d1b"/><path d="M137.24,174.59l-.42,.32c-.12-.12-.34-.12-.4,.08-.63,2.21-1.61,4.32-2.87,6.25l-.24-.15c.05-.12-.1-.27-.21-.16-3.14,3.1-7.29,5.01-11.24,6.97,3.17-2.03,6.2-4.25,8.66-7.12,.89-1.04,1.7-2.15,2.38-3.35,.62-1.1,1.38-2.42,1.42-3.7,0-.14-.19-.21-.27-.08-.31,.49-.51,1.03-.73,1.57-.25,.58-.53,1.14-.83,1.69-.59,1.05-1.27,2.05-2.02,2.99-1.59,1.98-3.5,3.7-5.54,5.23-.44,.33-.88,.64-1.33,.96,1.28-1.18,2.52-2.41,3.7-3.69,.15-.16-.06-.4-.23-.25-2.77,2.59-5.7,5.05-8.73,7.35-.13,.08-.27,.17-.41,.26-.86,.53-1.73,1.06-2.6,1.61,2.81-4.1,5.83-8.04,9.08-11.81,2.05-2.38,4.19-4.7,6.42-6.93,.19-.19-.09-.5-.29-.31-3.94,3.83-7.64,7.88-11.02,12.2-1.69,2.16-3.31,4.37-4.85,6.64-.25,.37-.51,.75-.75,1.13-.82,.54-1.62,1.1-2.38,1.71-.5,.39-.96,.8-1.41,1.24,1.23-1.79,2.34-3.67,3.3-5.62,1.32-2.69,2.4-5.49,3.7-8.19,1.2-2.5,2.66-4.86,4.4-7.04,1.91-2.38,4.11-4.52,6.56-6.36,.26-.19-.09-.56-.34-.37-4.35,3.2-7.95,7.31-10.47,12.03-1.4,2.63-2.48,5.4-3.71,8.1-1.18,2.59-2.54,5.07-4.17,7.42-.19,.28-.4,.54-.61,.82,1.92-4.05,3.85-8.1,5.76-12.16,1.09-2.32,2.14-4.67,3.33-6.94,1.09-2.1,2.33-4.14,3.94-5.89,.83-.89,1.74-1.71,2.74-2.41,1.02-.7,2.15-1.19,3.27-1.72,.23-.11,.09-.46-.15-.41-2.13,.41-4.09,1.91-5.59,3.38-1.67,1.64-2.99,3.58-4.12,5.61-.84,1.53-1.6,3.12-2.33,4.71,.27-.73,.54-1.44,.79-2.18,.57-1.67,1.12-3.36,1.56-5.07,.78-1.05,1.6-2.09,2.46-3.09,1.64-1.9,3.79-3.91,6.5-3.85,.26,0,.37-.23,.31-.42l.51-.02c.02,.08,.06,.14,.15,.2,3.56,2.41,6.71,5.38,9.31,8.78Z" fill="url(#Pomme_de_terre-2)"/><path d="M136.82,174.91c.06,.05,.09,.14,.07,.24-.83,3.04-2.23,5.89-4.19,8.39-1.77,2.25-3.91,4.13-6.32,5.68-2.57,1.65-5.33,2.94-8.06,4.3-2.53,1.27-5.03,2.62-7.27,4.37-.13,.11-.25,.21-.39,.32-.21,.3-.43,.61-.65,.9-.62,.83-1.26,1.63-1.93,2.41-.16,.19-.32,.37-.48,.55-.57,.63-1.16,1.25-1.82,1.8-.03,.05-.06,.09-.08,.14-.04,.07-.1,.09-.17,.08-.23,.18-.47,.36-.72,.52-.17,.11-.28-.13-.18-.25,.29-.34,.59-.67,.9-.99,1.04-2.51,2.96-4.53,5.09-6.19,.4-.57,.78-1.12,1.17-1.7-1.47,.99-2.81,2.14-3.99,3.44-.21,.43-.41,.88-.55,1.35-.06,.19-.35,.09-.29-.09,.05-.18,.12-.34,.18-.51-1.43,1.7-2.61,3.61-3.49,5.63-.1,.23-.45,.12-.38-.12,.21-.86,.51-1.69,.89-2.49,0-.03,.01-.07,.03-.1s.05-.06,.06-.09c.13-.27,.28-.53,.42-.79-.05,.05-.1,.09-.16,.14-.15,.23-.3,.47-.46,.69-.08,.12-.24,.07-.29-.04-.07,.06-.13,.12-.21,.18-.14,.11-.3-.07-.18-.2,.37-.41,.74-.82,1.11-1.23,.44-.69,.89-1.36,1.32-2.06-1.01,1.22-2.13,2.34-3.36,3.31-.1,.09-.3-.05-.19-.16,1.55-1.77,3.1-3.52,4.44-5.44,2.43-3.49,4.18-7.31,5.3-11.38,1.11-4.03,1.78-8.26,4.25-11.77,.09-.13,.25-.1,.33,0,.21-.3,.42-.59,.63-.88l.55-.7c.16-.49,.33-.99,.5-1.48,.05-.14,.3-.11,.27,.05-.04,.2-.08,.39-.13,.59,.58-.72,1.17-1.44,1.78-2.13,1.76-1.95,4.03-3.85,6.84-3.77,.16,0,.24,.1,.28,.21,.05,.18-.06,.42-.31,.42-2.71-.06-4.86,1.95-6.5,3.85-.86,1-1.68,2.03-2.46,3.09-.44,1.71-.99,3.39-1.56,5.07-.25,.73-.52,1.45-.79,2.18,.73-1.59,1.49-3.18,2.33-4.71,1.13-2.03,2.45-3.98,4.12-5.61,1.5-1.46,3.46-2.97,5.59-3.38,.24-.05,.38,.3,.15,.41-1.12,.53-2.25,1.02-3.27,1.72-1,.7-1.92,1.51-2.74,2.41-1.61,1.75-2.86,3.8-3.94,5.89-1.19,2.28-2.24,4.62-3.33,6.94-1.91,4.06-3.84,8.1-5.76,12.16,.21-.28,.42-.54,.61-.82,1.62-2.35,2.99-4.83,4.17-7.42,1.23-2.71,2.32-5.48,3.71-8.1,2.52-4.73,6.11-8.83,10.47-12.03,.25-.19,.59,.18,.34,.37-2.46,1.84-4.65,3.98-6.56,6.36-1.74,2.18-3.2,4.54-4.4,7.04-1.3,2.7-2.39,5.5-3.7,8.19-.96,1.95-2.07,3.83-3.3,5.62,.45-.44,.92-.85,1.41-1.24,.76-.61,1.56-1.17,2.38-1.71,.25-.38,.5-.76,.75-1.13,1.54-2.26,3.16-4.48,4.85-6.64,3.38-4.32,7.08-8.37,11.02-12.2,.2-.19,.48,.12,.29,.31-2.24,2.22-4.37,4.55-6.42,6.93-3.25,3.77-6.27,7.71-9.08,11.81,.87-.55,1.73-1.08,2.6-1.61,.14-.09,.28-.17,.41-.26,3.03-2.31,5.96-4.77,8.73-7.35,.16-.15,.38,.09,.23,.25-1.19,1.28-2.42,2.51-3.7,3.69,.44-.32,.89-.63,1.33-.96,2.04-1.53,3.95-3.24,5.54-5.23,.75-.94,1.43-1.94,2.02-2.99,.3-.55,.58-1.11,.83-1.69,.23-.54,.42-1.08,.73-1.57,.08-.13,.27-.06,.27,.08-.04,1.28-.8,2.6-1.42,3.7-.68,1.19-1.49,2.3-2.38,3.35-2.46,2.87-5.49,5.09-8.66,7.12,3.95-1.95,8.1-3.87,11.24-6.97,.11-.11,.26,.04,.21,.16,0,.01,0,.03-.02,.04-1.71,1.95-3.79,3.39-6.06,4.64-2.05,1.13-4.21,2.06-6.3,3.12-.76,.39-1.51,.8-2.26,1.22-.71,.53-1.42,1.05-2.15,1.56-.86,.59-1.73,1.17-2.58,1.77-.59,.9-1.18,1.79-1.78,2.67,4.45-3,9.6-4.84,14.12-7.74,2.47-1.58,4.66-3.51,6.4-5.85,.3-.41,.6-.83,.87-1.27,1.26-1.93,2.24-4.04,2.87-6.25,.06-.2,.28-.2,.4-.08Zm-19.77-.65c-.24,.35-.5,.7-.75,1.06-.39,.55-.8,1.31-1.35,1.71,0,0,0,0,0,0-.47,1.16-.84,2.37-1.15,3.58-.54,2.05-.94,4.13-1.53,6.16-.06,.21-.13,.41-.19,.62,.59-1.29,1.16-2.6,1.7-3.93,.85-2.09,1.65-4.21,2.37-6.35,.32-.95,.61-1.9,.91-2.85Zm-4.88,20.66c.1-.16,.2-.3,.3-.45-.32,.23-.65,.45-.96,.68-.34,.3-.68,.59-1.02,.9,.53-.39,1.08-.77,1.65-1.12,.01-.01,.02,0,.04,0Zm-4.54,2.64c.49-1.08,.99-2.15,1.48-3.22-.95,1.71-1.96,3.39-3,5.04,.52-.59,1.03-1.2,1.52-1.82Z" fill="#1d1d1b"/><path d="M137.44,162.42c.09,.1-.03,.23-.14,.17-.32-.18-.6-.44-.89-.66l-.84-.67c-.56-.46-1.13-.91-1.69-1.38-.19-.15,.02-.47,.21-.31,.57,.47,1.15,.94,1.71,1.41,.28,.23,.56,.46,.83,.7,.28,.24,.58,.46,.81,.74Z" fill="#1d1d1b"/><path d="M133.3,181.09l.24,.15c-.27,.43-.57,.86-.87,1.27-1.74,2.34-3.94,4.26-6.4,5.85-4.52,2.9-9.67,4.74-14.12,7.74,.6-.88,1.19-1.77,1.78-2.67,.85-.59,1.72-1.17,2.58-1.77,.73-.51,1.44-1.03,2.15-1.56,.75-.42,1.5-.83,2.26-1.22,2.09-1.06,4.25-1.99,6.3-3.12,2.28-1.24,4.35-2.69,6.06-4.64,.01-.01,.02-.03,.02-.04Z" fill="url(#Pomme_de_terre-3)"/><path d="M134.03,165.23c.05,.07-.06,.16-.12,.11-.34-.25-.64-.55-.94-.84-.3-.29-.6-.59-.9-.9-.59-.62-1.19-1.23-1.79-1.85-.2-.21,.13-.5,.33-.29,.59,.62,1.18,1.24,1.77,1.86,.3,.32,.59,.64,.88,.97,.26,.31,.54,.61,.77,.95Z" fill="#1d1d1b"/></g><g><path d="M108.18,201.59c-.16,.12,.05,.34,.21,.22,2.58-1.89,5.33-3.57,8.21-4.99,1.43-.71,2.88-1.35,4.36-1.93,1.51-.59,3.07-1.08,4.62-1.59,2.8-.94,5.58-2.01,7.84-3.95,1.96-1.67,3.49-3.81,4.49-6.16,.56-1.34,.96-2.74,1.16-4.17,.17-1.16,.27-2.45,.07-3.64,.27-.07,.52-.18,.76-.33,.37-.23,.68-.54,.89-.91,.22-.39,.28-.84,.43-1.26,.22-.61,.66-.67,1.21-.87,.3-.1,.58-.26,.81-.48,.45-.43,.7-1.02,.89-1.59,.2-.61,.33-1.24,.52-1.84-.12-.32-.23-.64-.35-.97-.2,.39-.33,.83-.45,1.25-.06,.24-.12,.47-.18,.69-.18,.67-.37,1.46-.89,1.96-.34,.32-.77,.39-1.19,.55-.48,.18-.79,.52-.97,.98-.24,.59-.28,1.22-.77,1.68-.25,.24-.55,.39-.87,.48-.03-.1-.12-.15-.21-.16-.11,0-.22,.06-.22,.19v.03c-.11,0-.22,.02-.33,.01-2.62-3.56-5.84-6.68-9.49-9.22,1.36-.83,2-2.66,1.33-4.11,.53-.15,.95-.62,1.24-1.09,.32-.51,1.01-2.09,1.85-1.52,.29,.2,.6-.16,.48-.42-.03-.05-.06-.09-.11-.12-.8-.54-1.65,.04-2.16,.68-.47,.6-.83,2.02-1.83,1.85-.23-.04-.45,.28-.31,.47,.9,1.29,.35,3.35-1.2,3.89-.18,.07-.28,.24-.25,.4,.02,.08,.06,.14,.15,.2,3.56,2.41,6.71,5.38,9.31,8.78,.11,.13,.21,.26,.31,.39,.15,.2,.24,.42,.5,.47,.17,.04,.35,.04,.53,.03,.03,1.03,.08,2.04-.04,3.07-.14,1.28-.45,2.54-.9,3.75-.9,2.4-2.36,4.6-4.28,6.34-2.21,1.99-4.95,3.13-7.76,4.1-2.92,1-5.8,2.05-8.57,3.41-3.12,1.53-6.08,3.36-8.85,5.44Z" fill="none" stroke="#312783" stroke-miterlimit="10" stroke-width=".5"/><path d="M138.38,164.85c-.15-.13-.32-.23-.53-.24-.19-.02-.37,.05-.53,.16-.04,.03-.06,.09-.06,.15-.43-.3-1.02-.25-1.44,.07-.5,.39-.55,1.1-.22,1.61,.35,.57,1,.82,1.66,.68,.67-.15,1.28-.68,1.45-1.34,.1-.41,0-.81-.33-1.09Z" fill="none" stroke="#312783" stroke-miterlimit="10" stroke-width=".5"/><path d="M137.29,166.76c-.42,.14-.88,.06-1.17-.28-.24-.28-.34-.73-.08-1.02,.23-.27,.72-.38,.99-.13,.09,.09,.24,.11,.34,.02,.06-.05,.09-.14,.07-.23,0,0,0,0,.01,0,.1,0,.18,0,.25,.04,.07,.03,.17,.07,.23,.13,.06,.04,.1,.1,.14,.18,.03,.06,.05,.2,.05,.31,0,.46-.43,.84-.84,.98Z" fill="none" stroke="#312783" stroke-miterlimit="10" stroke-width=".5"/><path d="M136.82,174.91c-.12-.12-.34-.12-.4,.08-.63,2.21-1.61,4.32-2.87,6.25-.27,.43-.57,.86-.87,1.27-1.74,2.34-3.94,4.26-6.4,5.85-4.52,2.9-9.67,4.74-14.12,7.74,.6-.88,1.19-1.77,1.78-2.67,.85-.59,1.72-1.17,2.58-1.77,.73-.51,1.44-1.03,2.15-1.56,.75-.42,1.5-.83,2.26-1.22,2.09-1.06,4.25-1.99,6.3-3.12,2.28-1.24,4.35-2.69,6.06-4.64,.01-.01,.02-.03,.02-.04,.05-.12-.1-.27-.21-.16-3.14,3.1-7.29,5.01-11.24,6.97,3.17-2.03,6.2-4.25,8.66-7.12,.89-1.04,1.7-2.15,2.38-3.35,.62-1.1,1.38-2.42,1.42-3.7,0-.14-.19-.21-.27-.08-.31,.49-.51,1.03-.73,1.57-.25,.58-.53,1.14-.83,1.69-.59,1.05-1.27,2.05-2.02,2.99-1.59,1.98-3.5,3.7-5.54,5.23-.44,.33-.88,.64-1.33,.96,1.28-1.18,2.52-2.41,3.7-3.69,.15-.16-.06-.4-.23-.25-2.77,2.59-5.7,5.05-8.73,7.35-.13,.08-.27,.17-.41,.26-.86,.53-1.73,1.06-2.6,1.61,2.81-4.1,5.83-8.04,9.08-11.81,2.05-2.38,4.19-4.7,6.42-6.93,.19-.19-.09-.5-.29-.31-3.94,3.83-7.64,7.88-11.02,12.2-1.69,2.16-3.31,4.37-4.85,6.64-.25,.37-.51,.75-.75,1.13-.82,.54-1.62,1.1-2.38,1.71-.5,.39-.96,.8-1.41,1.24,1.23-1.79,2.34-3.67,3.3-5.62,1.32-2.69,2.4-5.49,3.7-8.19,1.2-2.5,2.66-4.86,4.4-7.04,1.91-2.38,4.11-4.52,6.56-6.36,.26-.19-.09-.56-.34-.37-4.35,3.2-7.95,7.31-10.47,12.03-1.4,2.63-2.48,5.4-3.71,8.1-1.18,2.59-2.54,5.07-4.17,7.42-.19,.28-.4,.54-.61,.82,1.92-4.05,3.85-8.1,5.76-12.16,1.09-2.32,2.14-4.67,3.33-6.94,1.09-2.1,2.33-4.14,3.94-5.89,.83-.89,1.74-1.71,2.74-2.41,1.02-.7,2.15-1.19,3.27-1.72,.23-.11,.09-.46-.15-.41-2.13,.41-4.09,1.91-5.59,3.38-1.67,1.64-2.99,3.58-4.12,5.61-.84,1.53-1.6,3.12-2.33,4.71,.27-.73,.54-1.44,.79-2.18,.57-1.67,1.12-3.36,1.56-5.07,.78-1.05,1.6-2.09,2.46-3.09,1.64-1.9,3.79-3.91,6.5-3.85,.26,0,.37-.23,.31-.42-.04-.11-.12-.2-.28-.21-2.81-.08-5.08,1.83-6.84,3.77-.62,.69-1.21,1.4-1.78,2.13,.05-.2,.09-.39,.13-.59,.03-.16-.22-.19-.27-.05-.17,.49-.34,.99-.5,1.48l-.55,.7c-.21,.3-.43,.59-.63,.88-.08-.09-.24-.12-.33,0-2.46,3.51-3.14,7.74-4.25,11.77-1.12,4.08-2.87,7.89-5.3,11.38-1.35,1.93-2.9,3.67-4.44,5.44-.11,.11,.09,.26,.19,.16,1.23-.97,2.35-2.09,3.36-3.31-.43,.7-.88,1.37-1.32,2.06-.37,.41-.74,.81-1.11,1.23-.12,.13,.04,.32,.18,.2,.07-.06,.13-.12,.21-.18,.05,.11,.21,.16,.29,.04,.16-.23,.31-.47,.46-.69,.06-.05,.11-.09,.16-.14-.14,.26-.28,.52-.42,.79-.02,.03-.04,.05-.06,.09s-.03,.07-.03,.1c-.37,.8-.67,1.63-.89,2.49-.06,.25,.29,.36,.38,.12,.88-2.03,2.06-3.93,3.49-5.63-.07,.17-.13,.34-.18,.51-.06,.19,.23,.28,.29,.09,.14-.47,.34-.92,.55-1.35,1.19-1.3,2.52-2.46,3.99-3.44-.38,.57-.77,1.13-1.17,1.7-2.14,1.66-4.06,3.69-5.09,6.19-.31,.32-.61,.65-.9,.99-.11,.12,0,.36,.18,.25,.25-.16,.49-.34,.72-.52,.07,0,.14-.01,.17-.08,.02-.05,.05-.09,.08-.14,.65-.55,1.25-1.17,1.82-1.8,.17-.18,.32-.37,.48-.55,.67-.78,1.31-1.59,1.93-2.41,.22-.3,.44-.6,.65-.9,.13-.1,.26-.21,.39-.32,2.23-1.75,4.74-3.11,7.27-4.37,2.72-1.37,5.49-2.66,8.06-4.3,2.41-1.54,4.55-3.43,6.32-5.68,1.96-2.49,3.36-5.35,4.19-8.39,.03-.1,0-.19-.07-.24Z" fill="none" stroke="#312783" stroke-miterlimit="10" stroke-width=".5"/><path d="M112.26,186.78c.59-2.03,.99-4.11,1.53-6.16,.32-1.21,.68-2.42,1.15-3.58,0,0,0,0,0,0,.55-.4,.96-1.16,1.35-1.71,.25-.36,.5-.71,.75-1.06-.3,.95-.59,1.91-.91,2.85-.73,2.14-1.52,4.26-2.37,6.35-.54,1.33-1.11,2.64-1.7,3.93,.06-.21,.13-.4,.19-.62Z" fill="none" stroke="#312783" stroke-miterlimit="10" stroke-width=".5"/><path d="M107.63,197.56c-.49,.62-1,1.23-1.52,1.82,1.04-1.65,2.05-3.33,3-5.04-.49,1.07-.99,2.14-1.48,3.22Z" fill="none" stroke="#312783" stroke-miterlimit="10" stroke-width=".5"/><path d="M112.13,194.92c-.56,.35-1.12,.73-1.65,1.12,.33-.3,.68-.6,1.02-.9,.32-.23,.65-.46,.96-.68-.1,.15-.2,.3-.3,.45-.01,0-.02,0-.04,0Z" fill="none" stroke="#312783" stroke-miterlimit="10" stroke-width=".5"/><path d="M134.03,165.23c-.22-.33-.51-.64-.77-.95-.3-.32-.58-.65-.88-.97-.59-.62-1.18-1.24-1.77-1.86-.2-.21-.52,.09-.33,.29,.59,.62,1.19,1.23,1.79,1.85,.3,.31,.6,.6,.9,.9,.3,.29,.61,.6,.94,.84,.06,.05,.17-.04,.12-.11Z" fill="none" stroke="#312783" stroke-miterlimit="10" stroke-width=".5"/><path d="M140.45,171.8l-.92-1.09c-.15-.18-.31-.35-.47-.52-.16-.18-.32-.36-.5-.51-.08-.06-.18,.05-.14,.13,.11,.2,.27,.38,.4,.56,.15,.2,.3,.38,.45,.57,.3,.37,.6,.74,.91,1.11,.15,.18,.42-.06,.27-.24Z" fill="none" stroke="#312783" stroke-miterlimit="10" stroke-width=".5"/><path d="M143.76,168.35s-.01-.07-.03-.11c-.03-.07-.08-.14-.12-.22,.03-.03,.06-.06,.07-.12,1.37-5.59,4.59-10.5,8.47-14.73,4.1-4.47,8.88-8.35,13.74-11.99,5.21-3.91,10.68-7.44,16.34-10.67,5.38-3.07,10.91-6.06,15.53-10.2,2.05-1.84,4-4.06,4.51-6.83,.46-2.51-.38-5.02-1.82-7.09-1.52-2.2-3.65-3.99-6.02-5.28-1.31-.72-2.76-1.29-4.28-1.37-1.39-.07-2.72,.34-3.86,1.1-1.11,.73-2.03,1.71-2.86,2.73-.95,1.16-1.85,2.37-2.7,3.61-1.75,2.51-3.34,5.13-4.88,7.76-3.08,5.28-5.98,10.68-9.6,15.62-3.82,5.21-8.59,9.59-13.38,13.92-4.59,4.14-9.38,8.12-14.76,11.24-1.31,.76-2.65,1.46-4.03,2.1-.06,.02-.08,.06-.1,.1-.03-.02-.06-.03-.08-.05-.05,.07-.11,.13-.17,.19-.09,.1-.11,.26-.05,.37,.03,.04,.08,.08,.15,.11,3.48,1,6.67,2.82,9.3,5.24-.03-.08-.07-.16-.11-.26-.14-.35-.28-.69-.43-1.03-1.38-1.12-2.89-2.09-4.49-2.88-1.36-.24-2.63-.77-3.79-1.48,5.49-2.55,10.43-6.09,15.04-9.94,2.35-1.97,4.63-4.01,6.88-6.09,2.37-2.18,4.7-4.42,6.85-6.82,4.06-4.54,7.22-9.71,10.25-14.95,3.01-5.22,5.94-10.54,9.63-15.34,1.66-2.15,3.72-4.69,6.73-4.75,1.61-.04,3.16,.57,4.55,1.33,1.22,.67,2.36,1.47,3.39,2.39,1.96,1.76,3.64,4.03,4.14,6.63,.54,2.84-.66,5.46-2.54,7.56-1.98,2.23-4.46,4.08-6.93,5.75-2.53,1.71-5.18,3.25-7.84,4.77-5.51,3.14-10.91,6.38-16.07,10.06-4.99,3.56-9.87,7.39-14.24,11.67-3.97,3.88-7.55,8.31-9.67,13.45-.48,1.16-.87,2.36-1.18,3.57-.85-1.45-1.92-2.76-3.29-3.77-.08-.06-.17,.05-.11,.11,1.36,1.38,2.58,2.94,3.44,4.67,.11,.22,.43,.11,.44-.1Z" fill="none" stroke="#312783" stroke-miterlimit="10" stroke-width=".5"/><path d="M137.44,162.42c-.23-.28-.54-.5-.81-.74-.27-.24-.55-.47-.83-.7-.57-.48-1.14-.94-1.71-1.41-.18-.16-.4,.16-.21,.31,.57,.46,1.13,.92,1.69,1.38l.84,.67c.29,.22,.57,.48,.89,.66,.11,.06,.23-.07,.14-.17Z" fill="none" stroke="#312783" stroke-miterlimit="10" stroke-width=".5"/></g></g><path d="M115.56,194.5c-2.29,.61-4.37,1.88-6.2,3.34-1.86,1.48-3.45,3.29-4.73,5.27-.2,.32,.29,.63,.5,.32,1.26-1.92,2.83-3.61,4.64-5.05,1.81-1.44,3.86-2.49,5.94-3.5,.21-.1,.09-.45-.14-.39Z" fill="#009fe3"/><path d="M121.99,192.59c-5.52,2.14-10.57,5.27-14.92,9.23-1.17,1.07-2.47,2.19-3.29,3.55-.04,.06,.04,.12,.09,.08,1.14-.86,2.1-1.96,3.14-2.93,1.06-.97,2.16-1.9,3.3-2.78,2.32-1.79,4.82-3.34,7.42-4.71,1.45-.77,2.94-1.45,4.46-2.07,.25-.1,.06-.47-.2-.37Z" fill="#009fe3"/><path d="M118.13,180.89c2.38-4.58,5.28-8.93,9.59-11.96,.29-.2,.66,.2,.37,.41-2.36,1.72-4.3,3.93-5.95,6.32-2.99,4.34-4.98,9.25-7.28,13.96-1.15,2.37-2.38,4.72-3.85,6.93-1.39,2.09-3.01,4.25-5.18,5.61-.15,.1-.34-.11-.23-.25,.32-.4,.66-.79,1-1.18-.11-.06-.18-.19-.09-.3,.5-.59,.92-1.28,1.35-1.92,.43-.62,.85-1.26,1.24-1.91,.78-1.32,1.48-2.69,2.09-4.1,2.11-4.84,3.41-10.01,5.89-14.7,2.24-4.24,5.55-8.21,10.24-9.9,.44-.16,.79,.49,.34,.65-2.58,.95-4.77,2.63-6.52,4.71-3.28,3.9-5.05,8.67-6.72,13.38-.87,2.45-1.75,4.9-2.85,7.26,2.45-4.2,4.32-8.7,6.56-13.01Z" fill="#cbbba0"/><path d="M191.4,103.93c-8.15,3.22-12.56,11.21-16.52,18.39-.63,1.15-1.26,2.29-1.91,3.43-.33,.57-.66,1.13-.98,1.7-.35,.62-.63,1.28-1,1.89-.1,.17,.14,.33,.26,.17,.69-.96,1.42-1.86,2.02-2.88,.59-1.01,1.17-2.03,1.73-3.06,1.1-2.01,2.17-4.04,3.33-6.02,2.07-3.53,4.46-6.95,7.59-9.65,1.7-1.47,3.62-2.68,5.71-3.52,.3-.12,.07-.56-.23-.44Z" fill="#f6f6f6"/><path d="M107.71,200.16c-.08,.11-.16,.23-.24,.34-.75,1.05-1.49,2.13-2.45,3-.18,.16-.4-.06-.3-.25,.34-.65,.75-1.27,1.17-1.88,.26-.55,.61-1.04,1.03-1.46,.09-.14,.19-.28,.29-.43,.81-1.22,1.61-2.44,2.38-3.68,2.78-4.49,5.3-9.13,8.13-13.59,2.8-4.39,5.92-8.61,9.73-12.21,.26-.26,.65,.16,.38,.42-2.15,2.06-4.06,4.34-5.81,6.74-3.09,4.25-5.68,8.8-8.31,13.33-1.31,2.26-2.64,4.52-4.04,6.73-.27,.43-.55,.85-.83,1.27,.85-.47,1.77-.85,2.63-1.18,4.85-1.85,9.95-3.12,14.51-5.63,3.88-2.12,7.5-5.3,8.92-9.54,.08-.24,.46-.12,.38,.12-.73,2.29-2.04,4.33-3.72,6.06-3.34,3.44-7.8,5.4-12.28,6.99-2.51,.89-5.06,1.68-7.55,2.63-1.47,.57-2.84,1.26-4.02,2.22Z" fill="#f6f6f6"/><g><path d="M16.73,267.94c-.43,1.57-1.52,3.23-3.18,2.98-3.86-.3-8.4-15.44-11.4-32.33-2.87-15.42-1.91-22.83,2.34-26.37,1.71-1.09,3.03-.43,3.66,.24,.18,1.9,.36,3.82,.54,5.77-.89-.98-2.01-1.42-3.14-.89-3.21,1.94-3.97,8.02-1.57,21.66,2.24,13,5.62,24.73,8.95,25.1,1.08,.14,2.03-.92,2.51-2.57,.43,2.13,.87,4.27,1.3,6.4Z" fill="#e9624e" stroke="#312783" stroke-miterlimit="10"/><path d="M10.2,210.41c.77-1.24,1.98-2.43,3.2-3.15,1.89-1.11,3.34-.3,4.71,2.67,1.1,2.33,2.11,6.32,2.82,11.04,1.21,8.07,.87,13.95-.24,16.75,.01,.09,.03,.18,.04,.27,1.3,1.19,2.58,5.26,3.86,11.35,1.73,8.16,2.93,13.5,3.57,15.5-.61,.44-1.22,.87-1.83,1.27-.48-1.5-1.58-6.37-3.1-13.76-1.67-8.2-2.88-11.09-4.53-10.77-.56,.2-1.11,.39-1.67,.56,1.32,8.88,2.65,17.89,3.97,26.8-.59,.23-1.18,.43-1.77,.6-3.01-20.49-6.03-41.33-9.04-59.13Zm5.94,25.74c.6-.19,1.21-.4,1.81-.63,1.89-.7,2.4-5.9,1.35-12.86-1.18-7.88-2.98-10.62-4.86-9.73-.85,.43-1.41,1.09-1.64,1.57,1.12,6.96,2.23,14.23,3.35,21.65Z" fill="#e9624e" stroke="#312783" stroke-miterlimit="10"/><path d="M32.98,232.23c-1.77,.98-3.55,1.96-5.32,2.9,1.1,7.13,2.2,14.08,3.3,20.77,1.98-1.49,3.96-3.12,5.93-4.8,.33,1.82,.66,3.61,.99,5.37-2.57,2.45-5.14,4.79-7.7,6.83-3.05-18.54-6.11-39.26-9.16-59.6,2.47-1.15,4.93-2.13,7.4-2.89,.33,2.2,.66,4.4,.99,6.57-1.88,.63-3.75,1.35-5.63,2.15,.97,6.45,1.93,12.88,2.9,19.21,1.77-.86,3.55-1.74,5.32-2.59,.33,2.05,.65,4.07,.98,6.08Z" fill="#e9624e" stroke="#312783" stroke-miterlimit="10"/><path d="M39.51,237.31c.49,5.53,.97,10.92,1.46,16.16-.61,.6-1.22,1.19-1.83,1.78-1.5-17.29-3.01-36.03-4.51-55.85,.71-.1,1.42-.19,2.13-.25,4.61,19.11,9.23,34.77,13.84,44.94-.63,.59-1.26,1.19-1.89,1.8-1.45-3.43-2.9-7.36-4.35-11.77-1.62,1.04-3.24,2.11-4.86,3.2Zm3.57-7.64c-1.33-4.29-2.65-8.97-3.98-13.96-.9-3.4-1.65-6.65-2.38-9.88-.01,0-.03,0-.04,0,.34,3.4,.67,6.85,.97,10.26,.44,5.41,.87,10.72,1.31,15.9,1.38-.79,2.75-1.57,4.13-2.32Z" fill="#e9624e" stroke="#312783" stroke-miterlimit="10"/><path d="M43.58,199.84c.66-.57,1.8-.89,3.04-.67,1.77,.3,3.11,1.7,4.43,4.11,1.07,1.86,2.04,4.47,2.76,7.61,.88,3.85,.79,6.99-.3,8.84,0,.04,.02,.08,.03,.11,1.52,.58,3.76,3.07,5.12,7.46,.79,2.55,.92,4.55,.68,6.36-.37,2.36-1.64,4.39-3.88,6.38-1.22,1.07-2.21,1.75-2.85,2.08-3.01-10.81-6.01-25.07-9.02-42.28Zm5.52,19.41c.54-.15,1.07-.29,1.61-.43,1.87-.53,2.31-3.4,1.43-7.37-1.07-4.87-2.72-7.25-4.5-7.4-.81-.06-1.24,.14-1.48,.34,.98,5.29,1.97,10.24,2.95,14.85Zm4.39,18.24c.39-.12,.91-.48,1.54-.96,1.83-1.49,3.07-3.88,1.73-8.36-1.25-4.31-3.37-6.03-5.3-5.35-.49,.17-.98,.35-1.46,.54,1.16,5.21,2.33,9.92,3.49,14.13Z" fill="#e9624e" stroke="#312783" stroke-miterlimit="10"/><path d="M70.67,218.19c3.15,6.84,1.96,9.82-1.53,12.08-3.62,2.16-8.03,.12-10.81-9.93-2.91-10.68-2.11-19.45,1.55-17.5,3.74,1.8,8.08,9.45,10.79,15.35Zm-10.48,1.65c1.96,6.72,5.3,9.92,8.08,8.43,2.81-1.49,2.66-4.85,.58-9.84-1.82-4.2-5.15-10.78-8.1-11.89-2.93-1.06-2.58,6.53-.57,13.31Z" fill="#e9624e" stroke="#312783" stroke-miterlimit="10"/><path d="M84.68,217.69c3.15,4.5,1.96,6.94-1.53,7.49-3.62,.59-8.03-.71-10.81-6.68-2.91-6.51-2.11-11.6,1.55-9.91,3.74,1.58,8.08,5.42,10.8,9.1Zm-10.48,.66c1.96,3.97,5.3,5.97,8.08,5.48,2.8-.46,2.66-2.89,.58-5.96-1.82-2.58-5.15-6.15-8.1-7.09-2.93-.94-2.58,3.51-.57,7.56Z" fill="#e9624e" stroke="#312783" stroke-miterlimit="10"/><path d="M89.97,222.11c1.12,.42,2.55,.83,3.77,.81,1.81,.02,2.23-1.28,1.3-2.88-.86-1.46-2.08-2.01-4.4-2.36-2.77-.37-4.92-1.3-6.21-3.21-1.43-2.18-.72-3.68,1.94-3.84,1.4-.13,2.64-.1,3.48,0,.16,.45,.32,.9,.48,1.36-.61-.08-1.8-.18-3.04-.02-1.87,.22-1.83,1.28-1.21,2.18,.86,1.2,2.11,1.71,4.49,2,2.91,.35,4.84,.97,6.19,3.42,1.41,2.65,1.07,5.44-2.16,5.07-1.32-.1-3.02-.57-4.08-1.04-.18-.51-.36-1.02-.55-1.52Z" fill="#e9624e" stroke="#312783" stroke-miterlimit="10"/><path d="M96.12,208.82c-1.39,.95-2.78,1.67-4.17,2.22-.34-.41-.67-.82-1.01-1.23,3.38-1.26,6.76-3.69,10.14-7.94,.34,.42,.67,.88,1.01,1.37-1.4,1.68-2.79,3.08-4.19,4.23,2.72,3.5,5.44,8.48,8.16,17.98-.6-.05-1.19-.11-1.79-.17-2.72-8.56-5.44-13.08-8.16-16.47Z" fill="#e9624e" stroke="#312783" stroke-miterlimit="10"/></g></g></svg>